<?xml version="1.0" encoding="utf-8"?>
<!-- Generator: Adobe Illustrator 25.1.0, SVG Export Plug-In . SVG Version: 6.00 Build 0)  -->
<svg version="1.1" id="Layer_1" xmlns="http://www.w3.org/2000/svg" xmlns:xlink="http://www.w3.org/1999/xlink" x="0px" y="0px"
	 viewBox="0 0 1920 1080" style="enable-background:new 0 0 1920 1080;" xml:space="preserve">
<style type="text/css">
	.st0{fill:none;stroke:#FFCE35;stroke-width:100;stroke-miterlimit:10;}
</style>
<path class="st0" d="M205,496c342.7-222.1,440-254,457-233c31.3,38.6-203.7,262.4-155,328c40.2,54.1,233.1-53.7,286,13
	c41.5,52.4-50.6,152.4-12,198c46.3,54.7,259,6.2,295-102c37.9-113.9-150.2-204.6-118-339c27.2-113.5,197.5-199.3,275-156
	c56.8,31.7,59,130.2,62,258c4.7,202.8-45.7,279.2,3,326c55.1,53,196.9,29.4,233-38c42.5-79.5-74.9-196.2-35-240
	c36.5-40.1,152.4,38.2,192-2c29.4-29.9-0.1-108.4-37-181"/>
</svg>
