<?xml version="1.0" encoding="UTF-8" standalone="no"?>
<svg
   xmlns:dc="http://purl.org/dc/elements/1.1/"
   xmlns:cc="http://creativecommons.org/ns#"
   xmlns:rdf="http://www.w3.org/1999/02/22-rdf-syntax-ns#"
   xmlns:svg="http://www.w3.org/2000/svg"
   xmlns="http://www.w3.org/2000/svg"
   xmlns:sodipodi="http://sodipodi.sourceforge.net/DTD/sodipodi-0.dtd"
   xmlns:inkscape="http://www.inkscape.org/namespaces/inkscape"
   version="1.1"
   id="svg2"
   xml:space="preserve"
   width="503.35999"
   height="369.13333"
   viewBox="0 0 503.35999 369.13333"
   sodipodi:docname="LOGO EPS.eps"><metadata
     id="metadata8"><rdf:RDF><cc:Work
         rdf:about=""><dc:format>image/svg+xml</dc:format><dc:type
           rdf:resource="http://purl.org/dc/dcmitype/StillImage" /></cc:Work></rdf:RDF></metadata><defs
     id="defs6" /><sodipodi:namedview
     pagecolor="#ffffff"
     bordercolor="#666666"
     borderopacity="1"
     objecttolerance="10"
     gridtolerance="10"
     guidetolerance="10"
     inkscape:pageopacity="0"
     inkscape:pageshadow="2"
     inkscape:window-width="640"
     inkscape:window-height="480"
     id="namedview4" /><g
     id="g10"
     inkscape:groupmode="layer"
     inkscape:label="ink_ext_XXXXXX"
     transform="matrix(1.3333333,0,0,-1.3333333,0,369.13333)"><g
       id="g12"
       transform="scale(0.1)"><path
         d="m 596.598,2160.5 v -961.1 h -133.5 v 961.1 z m 465.102,0 v -80.8 H 0.00390625 v 80.8 H 1061.7"
         style="fill:#505256;fill-opacity:1;fill-rule:nonzero;stroke:none"
         id="path14" /><path
         d="m 1536.9,2177.2 c 66,-0.9 132.8,-3.3 200.2,-7 67.4,-3.7 134.8,-9.8 202.2,-18.1 l -10.1,-66.9 c -59.3,2.8 -122.7,5.1 -190.1,7 -67.4,1.9 -132.8,2.8 -196.2,2.8 -55.3,0 -102.8,-1.4 -142.6,-4.2 -39.8,-2.8 -72.5,-9.3 -98.1,-19.5 -25.6,-10.2 -44.2,-26.9 -55.6,-50.1 -11.5,-23.2 -17.2,-55.7 -17.2,-97.5 0,-59.4 14.8,-101.5 44.5,-126.1 29.6,-24.6 78.9,-41.6 147.6,-50.8 l 293.2,-41.8 c 105.2,-14.9 178.3,-43.2 219.4,-85 41.1,-41.8 61.7,-101.2 61.7,-178.3 0,-56.7 -9.5,-101.9 -28.3,-135.8 -18.9,-33.9 -46.9,-59.7 -83.9,-77.3 -37.1,-17.7 -83.9,-29.7 -140.5,-36.2 -56.6,-6.5 -123.3,-9.8 -200.2,-9.8 -48.5,0 -108.5,1.4 -180,4.2 -71.5,2.8 -153,9.3 -244.7,19.5 l 10.1,66.9 c 68.8,-1.9 126.4,-3.5 172.9,-4.9 46.5,-1.4 88.6,-2.3 126.4,-2.8 37.7,-0.5 77.5,-0.7 119.3,-0.7 78.2,0.9 140.2,5.6 186,13.9 45.8,8.4 78.5,25.1 98.1,50.1 19.5,25.1 29.3,63.1 29.3,114.2 0,41.8 -6.4,74.5 -19.2,98.2 -12.8,23.7 -33.7,41.8 -62.7,54.3 -29,12.5 -66.4,21.6 -112.2,27.2 l -297.3,43.2 c -99.8,13.9 -170.2,42 -211.3,84.3 -41.1,42.2 -61.7,100.5 -61.7,174.8 0,56.6 9.1,101.9 27.3,135.8 18.2,33.9 45.2,59.2 80.9,75.9 35.7,16.7 81.2,27.6 136.5,32.7 55.4,5.3 120.8,7.8 196.3,7.8"
         style="fill:#505256;fill-opacity:1;fill-rule:nonzero;stroke:none"
         id="path16" /><path
         d="m 2182,1746.8 h 721.9 V 1673 H 2182 Z m 212.3,415.1 c 66,0 132.8,0 200.2,0 67.4,0 134.5,-0.7 201.2,-2.1 66.7,-1.4 131.8,-3.5 195.1,-6.3 l -6.1,-71 h -568.2 c -44.5,0 -78.5,-8.4 -102.1,-25.1 -23.6,-16.7 -35.4,-41.3 -35.4,-73.8 v -607.3 c 0,-32.5 11.8,-57.3 35.4,-74.5 23.6,-17.2 57.6,-25.8 102.1,-25.8 h 568.2 l 6.1,-69.6 c -63.4,-2.8 -128.4,-4.7 -195.1,-5.6 -66.7,-0.9 -133.8,-1.6 -201.2,-2.1 -67.4,-0.5 -134.2,-0.7 -200.2,-0.7 -74.2,0 -133.8,14.6 -179,43.9 -45.2,29.3 -67.7,67.6 -67.7,114.9 v 646.3 c 0,48.3 22.6,86.8 67.7,115.6 45.2,28.8 104.8,43.2 179,43.2"
         style="fill:#505256;fill-opacity:1;fill-rule:nonzero;stroke:none"
         id="path18" /><path
         d="M 481.102,1087.2 V 827.102 h -47.5 V 1087.2 Z m 50.597,3.4 c 22.102,0 40.102,-2.3 53.899,-6.8 13.804,-4.5 23.804,-12.3 30.101,-23.2 6.301,-10.9 9.504,-26.3 9.504,-46.2 0,-13.1 -1.601,-24.201 -4.805,-33.4 -3.199,-9.199 -8.496,-16.5 -15.796,-21.898 -7.301,-5.403 -17.204,-8.903 -29.598,-10.403 v -1.898 c 4.398,-1 8.894,-3 13.695,-5.801 4.797,-2.801 9.102,-7 13.102,-12.199 3.996,-5.301 7,-12.102 9.101,-20.403 L 635.195,827 h -50.996 l -22,80.301 c -2.797,9.097 -6.699,15.398 -11.601,19 -4.899,3.597 -11.598,5.5 -20.098,5.5 -16.699,0 -31,0.097 -42.898,0.199 -11.805,0.102 -21.7,0.301 -29.504,0.602 -7.895,0.199 -14.696,0.398 -20.7,0.398 l 1.204,35.801 H 530.5 c 11.602,0.199 20.699,1.597 27.398,4 6.704,2.398 11.504,6.699 14.301,12.801 2.797,6.199 4.199,14.898 4.199,26.198 0,11.1 -1.402,19.6 -4.199,25.6 -2.797,6 -7.597,10.2 -14.301,12.6 -6.699,2.4 -15.796,3.6 -27.398,3.6 -22.699,0 -42.098,-0.1 -58.301,-0.4 -16.203,-0.3 -27.301,-0.5 -33.199,-0.8 l -5.398,34.7 c 10.296,1 20,1.8 29.199,2.3 9.101,0.5 19.101,0.8 29.894,0.9 10.801,0.1 23.805,0.3 39.004,0.3"
         style="fill:#f68814;fill-opacity:1;fill-rule:nonzero;stroke:none"
         id="path20" /><path
         d="M 727.102,1087.2 V 827.102 H 678.801 V 1087.2 h 48.301"
         style="fill:#f68814;fill-opacity:1;fill-rule:nonzero;stroke:none"
         id="path22" /><path
         d="m 868.496,1092.1 c 13.102,-0.3 27.004,-1 41.508,-2.3 14.496,-1.3 28.797,-3.6 42.699,-7.2 l -3.101,-32 c -11.106,0.2 -23.903,0.6 -38.403,0.9 -14.601,0.4 -28.496,0.6 -41.898,0.6 -8.199,0 -15.301,-0.3 -21.004,-0.8 -5.793,-0.5 -10.496,-1.8 -14.098,-3.8 -3.601,-2 -6.199,-5.1 -7.898,-9.2 -1.699,-4.1 -2.5,-9.9 -2.5,-17.2 0,-11.3 2.398,-19.4 7.101,-24.1 4.797,-4.801 12.5,-8.5 23.399,-11.301 l 52.5,-15.097 c 21.097,-6.301 35.703,-15.403 43.597,-27.301 8.004,-11.903 12,-27.801 12,-47.699 0,-14.801 -1.8,-27 -5.398,-36.602 -3.598,-9.602 -9.102,-17 -16.602,-22.199 -7.5,-5.301 -17.3,-9.102 -29.402,-11.301 -12.098,-2.301 -26.695,-3.398 -43.598,-3.398 -8.796,0 -20.8,0.5 -36.097,1.5 -15.305,1 -32.805,3.5 -52.301,7.5 L 782.102,865 c 15.199,-0.5 27.902,-0.898 38.199,-1.301 10.301,-0.398 19.199,-0.597 26.699,-0.597 7.5,0 14.398,0 20.898,0 11.801,0 21.102,0.796 27.801,2.296 6.699,1.5 11.403,4.602 14.102,9.403 2.703,4.801 4.097,11.699 4.097,20.699 0,7.801 -1,13.898 -2.902,18.301 -1.898,4.398 -5.094,7.898 -9.496,10.398 -4.398,2.5 -10,4.602 -17,6.403 l -54.496,16.199 c -20.106,6 -34.207,14.898 -42.301,26.801 -8.101,11.796 -12.203,27.598 -12.203,47.498 0,14.8 1.801,27 5.402,36.4 3.598,9.4 9.102,16.6 16.602,21.5 7.5,4.9 17.098,8.3 28.797,10.2 11.597,2 25.699,2.9 42.195,2.9"
         style="fill:#f68814;fill-opacity:1;fill-rule:nonzero;stroke:none"
         id="path24" /><path
         d="m 1207.6,1087.2 -73,-105.899 c -2.6,-4 -5.3,-7.5 -8.1,-10.403 -2.8,-2.898 -5.9,-5.597 -9.3,-8.097 v -1.102 c 3.6,-2.5 7.2,-5.5 10.8,-9 3.6,-3.5 6.6,-7.301 8.9,-11.301 l 75.7,-114.199 h -54.1 l -87.7,136.102 84.2,123.999 h 52.6 z M 1091,979.801 V 945.5 h -49.4 v 34.301 z m -34,107.399 v -76.9 c 0,-8 -0.6,-15.999 -1.7,-23.8 -1.2,-7.801 -2.9,-15.602 -5.2,-23.398 1.8,-7.301 3.4,-14.801 4.8,-22.403 1.4,-7.699 2.1,-15 2.1,-22.097 V 827 h -48.3 v 260.1 h 48.3 v 0.1"
         style="fill:#f68814;fill-opacity:1;fill-rule:nonzero;stroke:none"
         id="path26" /><path
         d="m 1378.5,1075.8 c 8.9,0 16.5,-0.2 22.9,-0.7 6.4,-0.5 12.2,-1.2 17.6,-2.3 5.3,-1.1 10.9,-2.4 16.5,-4.1 l -2.7,-23.7 c -6.1,0.7 -11.7,1.3 -16.8,1.8 -5.2,0.5 -10.7,0.8 -16.5,1.1 -5.9,0.2 -12.8,0.4 -20.9,0.4 -13.5,0 -24.2,-3.1 -32.1,-9.2 -7.9,-6.1 -13.5,-16.4 -16.8,-30.8 -3.3,-14.402 -5,-33.999 -5,-58.8 0,-24.801 1.7,-44.398 5,-58.801 3.3,-14.398 8.9,-24.699 16.8,-30.801 7.9,-6.097 18.6,-9.199 32.1,-9.199 12.9,0 23.8,0.301 32.6,0.903 8.8,0.597 17.4,1.597 25.9,3 l 2.7,-23.403 c -8.7,-2.801 -17.6,-4.898 -26.8,-6.199 -9.2,-1.301 -20.6,-1.898 -34.4,-1.898 -20,0 -36,4.097 -48,12.199 -12,8.097 -20.7,21.398 -26,39.898 -5.4,18.403 -8,43.199 -8,74.403 0,31.199 2.7,55.998 8,74.398 5.3,18.4 14,31.7 26,39.9 11.9,7.8 27.9,11.9 47.9,11.9"
         style="fill:#f68814;fill-opacity:1;fill-rule:nonzero;stroke:none"
         id="path28" /><path
         d="m 1551.7,1048.2 c -13.7,0 -24.6,-3.1 -32.6,-9.2 -8,-6.1 -13.6,-16.4 -17,-30.6 -3.3,-14.298 -5,-34.002 -5,-59.002 0,-24.796 1.7,-44.398 5,-58.796 3.3,-14.403 9,-24.704 17,-30.801 8,-6.102 18.8,-9.199 32.6,-9.199 13.7,0 24.6,3.097 32.6,9.199 8,6.097 13.6,16.398 17,30.801 3.3,14.398 5,34 5,58.796 0,25 -1.7,44.704 -5,59.002 -3.3,14.3 -9,24.5 -17,30.6 -8,6.1 -18.9,9.2 -32.6,9.2 z m 0,28 c 15.1,0 28,-2.1 38.6,-6.4 10.6,-4.3 19.1,-11.3 25.4,-21.1 6.4,-9.8 11,-22.9 13.9,-39.2 2.9,-16.301 4.4,-36.398 4.4,-60.199 0,-23.903 -1.5,-43.903 -4.4,-60.199 -2.9,-16.301 -7.6,-29.403 -13.9,-39.204 -6.4,-9.796 -14.8,-16.796 -25.4,-21.097 -10.6,-4.301 -23.5,-6.403 -38.6,-6.403 -15.1,0 -28,2.102 -38.6,6.403 -10.6,4.301 -19.1,11.301 -25.6,21.097 -6.5,9.801 -11.2,22.903 -14.1,39.204 -2.9,16.296 -4.4,36.398 -4.4,60.199 0,23.898 1.5,43.898 4.4,60.199 2.9,16.3 7.6,29.4 14.1,39.2 6.5,9.8 15,16.8 25.6,21.1 10.6,4.2 23.5,6.4 38.6,6.4"
         style="fill:#f68814;fill-opacity:1;fill-rule:nonzero;stroke:none"
         id="path30" /><path
         d="M 1840.1,1071.5 V 839.398 c 0,-8.296 -3.4,-12.398 -10.3,-12.398 h -26 c -3,0 -5.4,0.801 -7.3,2.5 -1.8,1.699 -3.3,4.102 -4.5,7.398 l -70.6,173.302 c -1.8,4.7 -3.9,10 -6.4,15.9 -2.4,5.9 -4.2,11.3 -5.5,16.3 h -4.8 c 0.4,-5.2 0.7,-10.5 0.9,-15.9 0.2,-5.4 0.3,-10.9 0.3,-16.3 V 827 h -26.7 v 232.1 c 0,8.3 3.5,12.4 10.6,12.4 h 25.1 c 3,0 5.5,-0.8 7.3,-2.5 1.8,-1.7 3.3,-4.1 4.5,-7.4 l 68.5,-168.998 c 2.2,-5 4.6,-10.602 7.1,-16.801 2.5,-6.301 4.9,-12.5 7.1,-18.602 h 5.1 c -0.2,6.403 -0.4,12.602 -0.6,18.801 -0.2,6.199 -0.3,12.301 -0.3,18.398 V 1071.6 h 26.5 v -0.1"
         style="fill:#f68814;fill-opacity:1;fill-rule:nonzero;stroke:none"
         id="path32" /><path
         d="m 1950.9,1075.8 c 9.9,-0.2 20.1,-0.8 30.6,-1.8 10.5,-0.9 21,-2.7 31.5,-5.3 l -1.8,-22.7 c -8.7,0.5 -18.3,0.9 -28.8,1.2 -10.5,0.4 -20.6,0.5 -30.3,0.5 -7.5,0 -13.9,-0.3 -19.2,-0.9 -5.4,-0.6 -9.7,-2 -13.2,-4.3 -3.4,-2.2 -5.9,-5.9 -7.4,-11 -1.5,-5.1 -2.3,-12.1 -2.3,-21.1 0,-13.502 2.1,-22.9 6.2,-28.201 4.1,-5.301 10.9,-9.301 20.1,-11.898 l 42.4,-12.403 c 16.2,-4.5 27.2,-12.296 33.2,-23.597 5.9,-11.199 8.9,-26.301 8.9,-45.199 0,-14.204 -1.4,-25.602 -4.1,-34.403 -2.7,-8.699 -6.9,-15.398 -12.6,-20 -5.7,-4.597 -12.9,-7.801 -21.8,-9.597 -8.9,-1.801 -19.4,-2.704 -31.5,-2.704 -6.9,0 -15.8,0.403 -26.8,1.102 -11,0.699 -23.7,2.602 -38,5.699 l 1.8,23 c 11.9,-0.5 21.5,-0.898 28.8,-1.199 7.3,-0.398 13.5,-0.5 18.8,-0.5 5.2,0 10.7,0 16.4,0 10.7,0 19.1,0.898 25.3,2.801 6.2,1.898 10.5,5.699 13,11.301 2.5,5.699 3.8,14 3.8,25.199 0,9.398 -0.9,16.801 -2.7,22 -1.8,5.199 -4.7,9.199 -8.6,11.898 -3.9,2.699 -8.9,4.903 -15,6.602 l -43.3,12.801 c -15.1,4.5 -25.8,12.296 -32,23.398 -6.2,11.102 -9.2,26 -9.2,44.6 0,14.2 1.4,25.6 4.1,34.2 2.7,8.6 6.9,15.1 12.4,19.5 5.6,4.4 12.6,7.3 21.1,8.7 8.4,1.6 18.5,2.3 30.2,2.3"
         style="fill:#f68814;fill-opacity:1;fill-rule:nonzero;stroke:none"
         id="path34" /><path
         d="M 2213.2,1071.5 V 920.602 c 0,-23.602 -2.4,-42.602 -7.3,-57.102 -4.9,-14.398 -12.7,-24.898 -23.6,-31.398 -10.9,-6.5 -25.5,-9.704 -43.9,-9.704 -18.8,0 -33.8,3.204 -45.1,9.704 -11.3,6.5 -19.5,16.898 -24.5,31.398 -5,14.398 -7.6,33.398 -7.6,57.102 V 1071.5 h 26.7 V 920.602 c 0,-17.5 1.6,-31.403 4.7,-41.602 3.1,-10.301 8.3,-17.602 15.6,-22 7.3,-4.398 17,-6.602 29.1,-6.602 12.1,0 21.8,2.204 28.9,6.602 7.2,4.398 12.4,11.699 15.6,22 3.2,10.301 4.9,24.199 4.9,41.602 V 1071.5 h 26.5"
         style="fill:#f68814;fill-opacity:1;fill-rule:nonzero;stroke:none"
         id="path36" /><path
         d="M 2290.2,1071.5 V 876.602 c 0,-8 1.7,-13.903 5,-17.704 3.3,-3.796 8.4,-5.699 15.3,-5.699 h 75.4 l 1.2,-24.097 c -13.1,-1.204 -26.5,-1.903 -40.1,-2.102 -13.6,-0.199 -27.2,-0.398 -40.7,-0.398 -15.4,0 -26.2,4.398 -32.7,13.097 -6.5,8.699 -9.7,19.699 -9.7,33 V 1071.5 h 26.3"
         style="fill:#f68814;fill-opacity:1;fill-rule:nonzero;stroke:none"
         id="path38" /><path
         d="M 2494.9,1071.5 V 827 h -26.7 v 244.5 z m 67.6,0 v -27.6 H 2401 v 27.6 h 161.5"
         style="fill:#f68814;fill-opacity:1;fill-rule:nonzero;stroke:none"
         id="path40" /><path
         d="M 2622.8,1071.5 V 827 h -26.7 v 244.5 h 26.7"
         style="fill:#f68814;fill-opacity:1;fill-rule:nonzero;stroke:none"
         id="path42" /><path
         d="M 2836.3,1071.5 V 839.398 C 2836.3,831.102 2832.9,827 2826,827 h -26 c -3,0 -5.5,0.801 -7.3,2.5 -1.8,1.699 -3.3,4.102 -4.5,7.398 l -70.6,173.302 c -1.8,4.7 -3.9,10 -6.4,15.9 -2.4,5.9 -4.2,11.3 -5.5,16.3 h -4.8 c 0.4,-5.2 0.7,-10.5 0.9,-15.9 0.2,-5.4 0.3,-10.9 0.3,-16.3 V 827 h -26.7 v 232.1 c 0,8.3 3.5,12.4 10.6,12.4 h 25.1 c 3,0 5.4,-0.8 7.3,-2.5 1.8,-1.7 3.3,-4.1 4.5,-7.4 l 68.5,-168.998 c 2.2,-5 4.6,-10.602 7.1,-16.801 2.5,-6.301 4.9,-12.5 7.1,-18.602 h 5.1 c -0.2,6.403 -0.4,12.602 -0.6,18.801 -0.2,6.199 -0.3,12.301 -0.3,18.398 V 1071.6 h 26.5 v -0.1"
         style="fill:#f68814;fill-opacity:1;fill-rule:nonzero;stroke:none"
         id="path44" /><path
         d="M 3032.3,968.398 V 827 h -19.4 l -4.2,36.102 -2.4,7.097 v 98.102 h 26 z m -63.6,107.802 c 7.1,0 13.9,-0.2 20.6,-0.7 6.7,-0.5 13.1,-1.2 19.4,-2.3 6.3,-1.1 12.3,-2.5 18.2,-4.4 l -2.7,-23.4 c -6.3,0.7 -12.6,1.3 -18.9,1.8 -6.4,0.5 -12.5,0.8 -18.3,0.9 -5.9,0.1 -11.4,0.2 -16.7,0.2 -11.3,0 -20.8,-1.2 -28.6,-3.7 -7.8,-2.5 -14,-7.3 -18.6,-14.4 -4.6,-7.1 -8,-17.2 -10.1,-30.501 -2.1,-13.199 -3.2,-30.5 -3.2,-51.699 0,-24.102 1.4,-43.301 4.2,-57.602 2.8,-14.296 7.6,-24.597 14.2,-31 6.7,-6.398 15.5,-9.597 26.7,-9.597 7.7,0 14.7,1.301 21.1,3.898 6.4,2.602 12.3,6 17.9,10.102 5.5,4.097 10.9,8.398 16.2,12.898 l 3.6,-19.097 c -3.6,-5 -8.6,-10.204 -15,-15.602 -6.4,-5.398 -13.8,-10 -22.3,-13.801 -8.5,-3.801 -18.1,-5.699 -28.8,-5.699 -15.6,0 -28.2,4.602 -38,13.602 -9.8,9.097 -16.9,23 -21.4,41.796 -4.5,18.801 -6.7,42.801 -6.7,72.102 0,32.398 2.8,57.7 8.3,76 5.6,18.3 14.7,31.2 27.6,38.8 12.8,7.6 29.9,11.4 51.3,11.4"
         style="fill:#f68814;fill-opacity:1;fill-rule:nonzero;stroke:none"
         id="path46" /><path
         d="m 1628.8,2404 c 87,11.5 173.2,25.8 257.8,44.8 84.5,19.5 167.8,42.2 247.9,72 l 30,11.1 29.5,12.2 c 9.9,4 19.8,7.6 29.8,11 9.9,3.8 19.9,7.3 29.9,10.8 10,3.5 20,7 29.8,10.9 l 29.2,12.5 c 19.6,8 38.5,17.4 57.6,26.6 75.8,37.2 147.9,81.7 214.4,133.3 l 24.9,19.3 26.6,-16.7 c 161.5,-101.3 338.6,-177 523.3,-225.9 184.6,-49.2 376.2,-72.5 568.3,-76.8 l 42.3,-0.9 1.7,-42.2 c 8.4,-212.7 2,-426.8 -26,-638.8 -27.9,-211.9 -77.9,-422 -155.8,-622.3 C 3551.1,1044.8 3505.3,947.199 3452.6,853.398 3439.4,830 3426.2,806.5 3411.8,783.801 l -21.1,-34.403 -22.2,-33.699 -22.4,-33.597 -23.5,-32.801 c -15.5,-22 -31.5,-43.699 -47.5,-65.301 -15.8,-21.898 -35.3,-40.699 -53.6,-60.398 -18.2,-19.801 -38,-38.204 -57,-57.102 -38.59,-37.301 -78.5,-73.102 -119.6,-107.301 -20.6,-17 -41.89,-33.199 -62.7,-49.801 C 2961,293.301 2939.3,277.801 2917.9,262 l -66,-44.602 c -22.4,-14.199 -44.9,-28.199 -67.4,-42 l 59,52.903 57.2,54.5 c 18.51,18.699 37.31,37 55.5,55.801 17.8,19.296 36,38.097 53.3,57.597 17,19.903 34.8,38.801 51.41,59 16.39,20.301 33.59,39.699 49.19,60.5 15.7,20.699 32.1,40.801 46.8,62.102 15.1,21.097 29.9,42.199 45.6,62.597 l 24.21,30.102 c 8.09,10 15.29,20.801 22.89,31.199 l 22.5,31.5 21.5,32.199 21.3,32.301 20.3,33 c 13.8,21.801 26.51,44.301 39.1,66.699 50.6,89.903 94.51,183.702 131.9,280.002 74.9,192.8 123.4,395.8 150.51,601.6 27.19,206 33.49,414.9 25.29,623.3 l 44,-43.1 c -197.99,4.4 -396.7,28.4 -589.5,79.8 -192.69,51 -378.49,130.5 -547.8,236.6 l 51.5,2.6 c -71.6,-55.6 -149,-103.3 -230,-143.1 -20.3,-9.9 -40.5,-19.8 -61.39,-28.4 l -31.01,-13.4 c -10.3,-4.5 -20.9,-8.3 -31.3,-12.7 -10.4,-4.3 -20.8,-8.6 -31.4,-12.5 -10.6,-3.7 -21.4,-6.8 -32.3,-9.8 l -32.6,-8.6 -32.9,-7.2 c -87.7,-18.9 -176,-31.7 -264.4,-37.2 -88.3,-6.2 -176.5,-6.3 -264.1,-1.3"
         style="fill:#f57616;fill-opacity:1;fill-rule:nonzero;stroke:none"
         id="path48" /></g></g></svg>
