<svg xmlns="http://www.w3.org/2000/svg" version="1.1" xmlns:xlink="http://www.w3.org/1999/xlink" xmlns:svgjs="http://svgjs.com/svgjs" width="1440" height="560" preserveAspectRatio="none" viewBox="0 0 1440 560"><g mask="url(&quot;#SvgjsMask1021&quot;)" fill="none"><path d="M343 145L342 -5" stroke-width="10" stroke="url(#SvgjsLinearGradient1022)" stroke-linecap="round" class="Down"></path><path d="M379 443L378 834" stroke-width="6" stroke="url(#SvgjsLinearGradient1023)" stroke-linecap="round" class="Up"></path><path d="M686 55L685 -343" stroke-width="6" stroke="url(#SvgjsLinearGradient1022)" stroke-linecap="round" class="Down"></path><path d="M1045 220L1044 -109" stroke-width="6" stroke="url(#SvgjsLinearGradient1022)" stroke-linecap="round" class="Down"></path><path d="M53 141L52 -188" stroke-width="8" stroke="url(#SvgjsLinearGradient1022)" stroke-linecap="round" class="Down"></path><path d="M816 556L815 358" stroke-width="6" stroke="url(#SvgjsLinearGradient1022)" stroke-linecap="round" class="Down"></path><path d="M839 70L838 345" stroke-width="8" stroke="url(#SvgjsLinearGradient1022)" stroke-linecap="round" class="Down"></path><path d="M679 208L678 -37" stroke-width="6" stroke="url(#SvgjsLinearGradient1023)" stroke-linecap="round" class="Up"></path><path d="M1109 125L1108 -37" stroke-width="6" stroke="url(#SvgjsLinearGradient1022)" stroke-linecap="round" class="Down"></path><path d="M544 369L543 143" stroke-width="10" stroke="url(#SvgjsLinearGradient1022)" stroke-linecap="round" class="Down"></path><path d="M467 241L466 430" stroke-width="6" stroke="url(#SvgjsLinearGradient1023)" stroke-linecap="round" class="Up"></path><path d="M1135 200L1134 560" stroke-width="6" stroke="url(#SvgjsLinearGradient1023)" stroke-linecap="round" class="Up"></path><path d="M159 60L158 -234" stroke-width="8" stroke="url(#SvgjsLinearGradient1022)" stroke-linecap="round" class="Down"></path><path d="M395 294L394 621" stroke-width="10" stroke="url(#SvgjsLinearGradient1023)" stroke-linecap="round" class="Up"></path><path d="M175 151L174 -90" stroke-width="8" stroke="url(#SvgjsLinearGradient1023)" stroke-linecap="round" class="Up"></path><path d="M114 441L113 189" stroke-width="6" stroke="url(#SvgjsLinearGradient1023)" stroke-linecap="round" class="Up"></path><path d="M1397 349L1396 149" stroke-width="6" stroke="url(#SvgjsLinearGradient1022)" stroke-linecap="round" class="Down"></path><path d="M942 406L941 681" stroke-width="8" stroke="url(#SvgjsLinearGradient1023)" stroke-linecap="round" class="Up"></path><path d="M19 226L18 630" stroke-width="8" stroke="url(#SvgjsLinearGradient1023)" stroke-linecap="round" class="Up"></path><path d="M508 286L507 493" stroke-width="8" stroke="url(#SvgjsLinearGradient1022)" stroke-linecap="round" class="Down"></path><path d="M94 472L93 739" stroke-width="8" stroke="url(#SvgjsLinearGradient1023)" stroke-linecap="round" class="Up"></path><path d="M1240 52L1239 -295" stroke-width="6" stroke="url(#SvgjsLinearGradient1023)" stroke-linecap="round" class="Up"></path><path d="M785 361L784 725" stroke-width="8" stroke="url(#SvgjsLinearGradient1022)" stroke-linecap="round" class="Down"></path><path d="M303 253L302 72" stroke-width="8" stroke="url(#SvgjsLinearGradient1022)" stroke-linecap="round" class="Down"></path><path d="M249 166L248 -119" stroke-width="8" stroke="url(#SvgjsLinearGradient1023)" stroke-linecap="round" class="Up"></path><path d="M1270 146L1269 -48" stroke-width="10" stroke="url(#SvgjsLinearGradient1022)" stroke-linecap="round" class="Down"></path><path d="M565 501L564 153" stroke-width="6" stroke="url(#SvgjsLinearGradient1022)" stroke-linecap="round" class="Down"></path><path d="M511 399L510 666" stroke-width="10" stroke="url(#SvgjsLinearGradient1023)" stroke-linecap="round" class="Up"></path><path d="M716 375L715 -29" stroke-width="8" stroke="url(#SvgjsLinearGradient1023)" stroke-linecap="round" class="Up"></path><path d="M1309 364L1308 773" stroke-width="8" stroke="url(#SvgjsLinearGradient1022)" stroke-linecap="round" class="Down"></path><path d="M584 269L583 611" stroke-width="6" stroke="url(#SvgjsLinearGradient1023)" stroke-linecap="round" class="Up"></path><path d="M53 45L52 260" stroke-width="10" stroke="url(#SvgjsLinearGradient1022)" stroke-linecap="round" class="Down"></path><path d="M335 266L334 40" stroke-width="6" stroke="url(#SvgjsLinearGradient1023)" stroke-linecap="round" class="Up"></path><path d="M448 40L447 372" stroke-width="6" stroke="url(#SvgjsLinearGradient1023)" stroke-linecap="round" class="Up"></path><path d="M1238 558L1237 860" stroke-width="8" stroke="url(#SvgjsLinearGradient1023)" stroke-linecap="round" class="Up"></path><path d="M659 302L658 87" stroke-width="8" stroke="url(#SvgjsLinearGradient1022)" stroke-linecap="round" class="Down"></path></g><defs><mask id="SvgjsMask1021"><rect width="1440" height="560" fill="#ffffff"></rect></mask><linearGradient x1="0%" y1="0%" x2="0%" y2="100%" id="SvgjsLinearGradient1022"><stop stop-color="rgba(157, 221, 255, 0)" offset="0"></stop><stop stop-color="rgba(157, 221, 255, 1)" offset="1"></stop></linearGradient><linearGradient x1="0%" y1="100%" x2="0%" y2="0%" id="SvgjsLinearGradient1023"><stop stop-color="rgba(157, 221, 255, 0)" offset="0"></stop><stop stop-color="rgba(157, 221, 255, 1)" offset="1"></stop></linearGradient></defs></svg>