<svg width="1611.7" height="100" viewBox="0 0 1611.7 100" xmlns="http://www.w3.org/2000/svg"><g id="svgGroup" stroke-linecap="round" fill-rule="evenodd" font-size="9pt" stroke="#000" stroke-width="0.25mm" fill="black" style="stroke:#000;stroke-width:0.25mm;fill:black"><path d="M 2.3 76.3 L 0 76.3 L 8.1 3.1 L 11.4 3.1 L 33 72.2 L 54.2 3.1 L 57.7 3.1 L 66.1 76.3 L 63.7 76.3 L 55.4 3.7 L 56.1 4 L 34.1 76.3 L 32 76.3 L 9.5 4.1 L 10.2 3.9 L 2.3 76.3 Z M 262.6 76.3 L 260.2 76.3 L 260.2 23.2 L 261.6 23.2 L 262.6 29.4 A 47.723 47.723 0 0 1 269.194 25.791 A 57.317 57.317 0 0 1 272.55 24.4 Q 278.1 22.3 284.2 22.3 A 18.904 18.904 0 0 1 288.522 22.772 A 14.405 14.405 0 0 1 292.95 24.6 Q 296.6 26.9 298.5 30.5 A 27.066 27.066 0 0 1 301.03 28.786 Q 302.375 27.976 303.965 27.192 A 50.527 50.527 0 0 1 305.1 26.65 Q 309.1 24.8 313.6 23.55 A 35.365 35.365 0 0 1 318.438 22.548 A 28.012 28.012 0 0 1 322.1 22.3 A 19.497 19.497 0 0 1 326.359 22.743 A 14.404 14.404 0 0 1 331.1 24.7 Q 334.8 27.1 336.7 31 Q 338.6 34.9 338.6 39.3 L 338.6 76.3 L 336.2 76.3 L 336.2 39.3 A 16.903 16.903 0 0 0 335.348 33.886 A 15.643 15.643 0 0 0 334.55 31.95 Q 332.9 28.6 329.75 26.55 A 12.431 12.431 0 0 0 325.16 24.765 A 16.943 16.943 0 0 0 322.1 24.5 Q 316.4 24.5 310.4 26.6 Q 304.4 28.7 299 31.7 Q 299.8 33.5 300.2 35.4 Q 300.6 37.3 300.6 39.3 L 300.6 76.3 L 298.2 76.3 L 298.2 39.3 A 16.903 16.903 0 0 0 297.348 33.886 A 15.643 15.643 0 0 0 296.55 31.95 Q 294.9 28.6 291.8 26.55 A 12.083 12.083 0 0 0 287.378 24.788 A 16.727 16.727 0 0 0 284.2 24.5 Q 279.8 24.5 276.3 25.25 Q 272.8 26 269.55 27.4 Q 266.3 28.8 262.6 30.8 L 262.6 76.3 Z M 379.4 76.3 L 377 76.3 L 377 23.2 L 378.4 23.2 L 379.4 29.4 A 47.723 47.723 0 0 1 385.994 25.791 A 57.317 57.317 0 0 1 389.35 24.4 Q 394.9 22.3 401 22.3 A 18.904 18.904 0 0 1 405.322 22.772 A 14.405 14.405 0 0 1 409.75 24.6 Q 413.4 26.9 415.3 30.5 A 27.066 27.066 0 0 1 417.83 28.786 Q 419.175 27.976 420.765 27.192 A 50.527 50.527 0 0 1 421.9 26.65 Q 425.9 24.8 430.4 23.55 A 35.365 35.365 0 0 1 435.238 22.548 A 28.012 28.012 0 0 1 438.9 22.3 A 19.497 19.497 0 0 1 443.159 22.743 A 14.404 14.404 0 0 1 447.9 24.7 Q 451.6 27.1 453.5 31 Q 455.4 34.9 455.4 39.3 L 455.4 76.3 L 453 76.3 L 453 39.3 A 16.903 16.903 0 0 0 452.148 33.886 A 15.643 15.643 0 0 0 451.35 31.95 Q 449.7 28.6 446.55 26.55 A 12.431 12.431 0 0 0 441.96 24.765 A 16.943 16.943 0 0 0 438.9 24.5 Q 433.2 24.5 427.2 26.6 Q 421.2 28.7 415.8 31.7 Q 416.6 33.5 417 35.4 Q 417.4 37.3 417.4 39.3 L 417.4 76.3 L 415 76.3 L 415 39.3 A 16.903 16.903 0 0 0 414.148 33.886 A 15.643 15.643 0 0 0 413.35 31.95 Q 411.7 28.6 408.6 26.55 A 12.083 12.083 0 0 0 404.178 24.788 A 16.727 16.727 0 0 0 401 24.5 Q 396.6 24.5 393.1 25.25 Q 389.6 26 386.35 27.4 Q 383.1 28.8 379.4 30.8 L 379.4 76.3 Z M 81 60.4 L 81 23.2 L 83.4 23.2 L 83.4 60.4 Q 83.4 67.539 86.108 70.741 A 7.165 7.165 0 0 0 87.15 71.75 Q 90.9 74.7 98 74.7 Q 104.2 74.7 108.85 73.2 Q 113.153 71.812 118.183 69.14 A 84.045 84.045 0 0 0 119 68.7 L 119 23.2 L 121.4 23.2 L 121.4 76.3 L 120 76.3 L 119 70.1 A 43.329 43.329 0 0 1 113.157 73.27 A 54.272 54.272 0 0 1 109.1 74.9 Q 103.5 76.9 97.4 76.9 A 26.714 26.714 0 0 1 92.714 76.515 Q 90.14 76.056 88.1 75.049 A 12.947 12.947 0 0 1 85.25 73.15 A 10.953 10.953 0 0 1 82.363 68.911 Q 81 65.498 81 60.4 Z M 202 60.4 L 202 23.2 L 204.4 23.2 L 204.4 60.4 Q 204.4 67.539 207.108 70.741 A 7.165 7.165 0 0 0 208.15 71.75 Q 211.9 74.7 219 74.7 Q 225.2 74.7 229.85 73.2 Q 234.153 71.812 239.183 69.14 A 84.045 84.045 0 0 0 240 68.7 L 240 23.2 L 242.4 23.2 L 242.4 76.3 L 241 76.3 L 240 70.1 A 43.329 43.329 0 0 1 234.157 73.27 A 54.272 54.272 0 0 1 230.1 74.9 Q 224.5 76.9 218.4 76.9 A 26.714 26.714 0 0 1 213.714 76.515 Q 211.14 76.056 209.1 75.049 A 12.947 12.947 0 0 1 206.25 73.15 A 10.953 10.953 0 0 1 203.363 68.911 Q 202 65.498 202 60.4 Z M 746.4 60.4 L 746.4 23.2 L 748.8 23.2 L 748.8 60.4 Q 748.8 67.539 751.508 70.741 A 7.165 7.165 0 0 0 752.55 71.75 Q 756.3 74.7 763.4 74.7 Q 769.6 74.7 774.25 73.2 Q 778.553 71.812 783.583 69.14 A 84.045 84.045 0 0 0 784.4 68.7 L 784.4 23.2 L 786.8 23.2 L 786.8 76.3 L 785.4 76.3 L 784.4 70.1 A 43.329 43.329 0 0 1 778.557 73.27 A 54.272 54.272 0 0 1 774.5 74.9 Q 768.9 76.9 762.8 76.9 A 26.714 26.714 0 0 1 758.114 76.515 Q 755.54 76.056 753.5 75.049 A 12.947 12.947 0 0 1 750.65 73.15 A 10.953 10.953 0 0 1 747.763 68.911 Q 746.4 65.498 746.4 60.4 Z M 1145.2 60.4 L 1145.2 23.2 L 1147.6 23.2 L 1147.6 60.4 Q 1147.6 67.539 1150.308 70.741 A 7.165 7.165 0 0 0 1151.35 71.75 Q 1155.1 74.7 1162.2 74.7 Q 1168.4 74.7 1173.05 73.2 Q 1177.353 71.812 1182.383 69.14 A 84.045 84.045 0 0 0 1183.2 68.7 L 1183.2 23.2 L 1185.6 23.2 L 1185.6 76.3 L 1184.2 76.3 L 1183.2 70.1 A 43.329 43.329 0 0 1 1177.357 73.27 A 54.272 54.272 0 0 1 1173.3 74.9 Q 1167.7 76.9 1161.6 76.9 A 26.714 26.714 0 0 1 1156.914 76.515 Q 1154.34 76.056 1152.3 75.049 A 12.947 12.947 0 0 1 1149.45 73.15 A 10.953 10.953 0 0 1 1146.563 68.911 Q 1145.2 65.498 1145.2 60.4 Z M 1092.7 76.3 L 1092.7 74.7 L 1113.1 74.7 A 46.593 46.593 0 0 0 1116.84 74.557 Q 1118.721 74.405 1120.38 74.092 A 28.196 28.196 0 0 0 1120.6 74.05 A 9.915 9.915 0 0 0 1123.303 73.122 A 8.059 8.059 0 0 0 1125.8 71.1 Q 1127.7 68.8 1127.7 64 L 1127.7 61.1 Q 1127.7 56.4 1124.6 53.75 A 9.585 9.585 0 0 0 1121.537 52.034 Q 1120.136 51.538 1118.407 51.305 A 24.862 24.862 0 0 0 1115.1 51.1 L 1108.3 51.1 Q 1103.4 51.1 1099.85 50.05 A 11.379 11.379 0 0 1 1096.972 48.77 A 9.165 9.165 0 0 1 1094.4 46.35 A 9.169 9.169 0 0 1 1093.085 43.583 Q 1092.5 41.607 1092.5 39 L 1092.5 36.4 A 20.715 20.715 0 0 1 1092.725 33.256 Q 1092.986 31.557 1093.551 30.163 A 10.397 10.397 0 0 1 1094.4 28.5 A 10.613 10.613 0 0 1 1098.728 24.655 A 13.64 13.64 0 0 1 1100 24.1 Q 1103.7 22.7 1109.1 22.7 Q 1111.471 22.7 1114.966 22.749 A 723.681 723.681 0 0 1 1115.05 22.75 Q 1118.6 22.8 1122.25 22.95 Q 1124.702 23.051 1126.545 23.219 A 43.441 43.441 0 0 1 1128.2 23.4 L 1128.2 25 L 1109.1 25 Q 1102.3 25 1098.6 27.35 Q 1095.709 29.186 1095.077 33.677 A 19.576 19.576 0 0 0 1094.9 36.4 L 1094.9 39 A 16.567 16.567 0 0 0 1095.05 41.309 Q 1095.215 42.483 1095.564 43.43 A 6.526 6.526 0 0 0 1096.6 45.3 Q 1098.3 47.4 1101.35 48.05 Q 1104.305 48.68 1108.057 48.699 A 46.321 46.321 0 0 0 1108.3 48.7 L 1115.1 48.7 A 23.078 23.078 0 0 1 1119.712 49.136 Q 1122.691 49.743 1125.013 51.197 A 13.978 13.978 0 0 1 1125.9 51.8 A 10.034 10.034 0 0 1 1129.869 58.364 A 15.454 15.454 0 0 1 1130.1 61.1 L 1130.1 64 Q 1130.1 67.493 1129.117 69.878 A 8.391 8.391 0 0 1 1127.75 72.15 A 11.508 11.508 0 0 1 1122.717 75.545 A 14.43 14.43 0 0 1 1121.55 75.9 Q 1117.7 76.9 1113.1 76.9 Q 1111.952 76.9 1109.953 76.871 A 572.581 572.581 0 0 1 1108.65 76.85 Q 1105.7 76.8 1102.4 76.7 A 953.456 953.456 0 0 1 1099.309 76.602 Q 1097.843 76.552 1096.534 76.503 A 577.464 577.464 0 0 1 1096.45 76.5 Q 1093.8 76.4 1092.7 76.3 Z M 615.2 76.3 L 612.8 76.3 L 612.8 23.2 L 614.2 23.2 L 615.2 29.4 A 47.723 47.723 0 0 1 621.794 25.791 A 57.317 57.317 0 0 1 625.15 24.4 Q 630.7 22.3 636.8 22.3 A 19.433 19.433 0 0 1 640.978 22.727 A 14.117 14.117 0 0 1 645.75 24.7 Q 649.4 27.1 651.3 31 Q 653.2 34.9 653.2 39.3 L 653.2 76.3 L 650.8 76.3 L 650.8 39.3 A 16.903 16.903 0 0 0 649.948 33.886 A 15.643 15.643 0 0 0 649.15 31.95 Q 647.5 28.6 644.4 26.55 A 12.083 12.083 0 0 0 639.978 24.788 A 16.727 16.727 0 0 0 636.8 24.5 Q 632.4 24.5 628.9 25.25 Q 625.4 26 622.15 27.4 Q 618.9 28.8 615.2 30.8 L 615.2 76.3 Z M 855.6 76.3 L 853.2 76.3 L 853.2 23.2 L 854.6 23.2 L 855.6 29.4 A 47.723 47.723 0 0 1 862.194 25.791 A 57.317 57.317 0 0 1 865.55 24.4 Q 871.1 22.3 877.2 22.3 A 19.433 19.433 0 0 1 881.378 22.727 A 14.117 14.117 0 0 1 886.15 24.7 Q 889.8 27.1 891.7 31 Q 893.6 34.9 893.6 39.3 L 893.6 76.3 L 891.2 76.3 L 891.2 39.3 A 16.903 16.903 0 0 0 890.348 33.886 A 15.643 15.643 0 0 0 889.55 31.95 Q 887.9 28.6 884.8 26.55 A 12.083 12.083 0 0 0 880.378 24.788 A 16.727 16.727 0 0 0 877.2 24.5 Q 872.8 24.5 869.3 25.25 Q 865.8 26 862.55 27.4 Q 859.3 28.8 855.6 30.8 L 855.6 76.3 Z M 1255.5 63.7 L 1255.5 60.6 A 16.366 16.366 0 0 1 1256.115 56 A 12.485 12.485 0 0 1 1259.55 50.35 Q 1262.936 47.132 1268.942 46.604 A 28.089 28.089 0 0 1 1271.4 46.5 L 1293 46.5 L 1293 37.6 A 20.053 20.053 0 0 0 1292.742 34.301 Q 1292.409 32.309 1291.65 30.65 Q 1290.3 27.7 1286.95 26.05 Q 1283.669 24.434 1277.751 24.401 A 44.478 44.478 0 0 0 1277.5 24.4 L 1260.5 24.4 L 1260.5 22.8 A 387.248 387.248 0 0 0 1262.994 22.711 Q 1264.103 22.668 1265.33 22.615 A 733.971 733.971 0 0 0 1267.9 22.5 Q 1271.595 22.328 1276.177 22.23 A 474.372 474.372 0 0 1 1277.7 22.2 Q 1284.1 22.1 1288 23.9 A 12.804 12.804 0 0 1 1291.251 26.011 A 10.761 10.761 0 0 1 1293.65 29.15 Q 1295.236 32.277 1295.385 36.676 A 27.356 27.356 0 0 1 1295.4 37.6 L 1295.4 76.3 L 1293.8 76.3 L 1293 69.9 A 0.269 0.269 0 0 0 1292.94 69.916 Q 1292.606 70.031 1290.55 70.95 Q 1288.317 71.948 1284.865 73.261 A 202.791 202.791 0 0 1 1284.5 73.4 A 70.66 70.66 0 0 1 1278.19 75.444 A 79.651 79.651 0 0 1 1276.65 75.85 A 35.335 35.335 0 0 1 1272.124 76.699 A 28.386 28.386 0 0 1 1268.8 76.9 A 15.757 15.757 0 0 1 1264.176 76.249 A 12.868 12.868 0 0 1 1259.3 73.5 A 10.982 10.982 0 0 1 1255.959 67.787 Q 1255.514 65.983 1255.5 63.839 A 21.4 21.4 0 0 1 1255.5 63.7 Z M 1513.5 63.7 L 1513.5 60.6 A 16.366 16.366 0 0 1 1514.115 56 A 12.485 12.485 0 0 1 1517.55 50.35 Q 1520.936 47.132 1526.942 46.604 A 28.089 28.089 0 0 1 1529.4 46.5 L 1551 46.5 L 1551 37.6 A 20.053 20.053 0 0 0 1550.742 34.301 Q 1550.409 32.309 1549.65 30.65 Q 1548.3 27.7 1544.95 26.05 Q 1541.669 24.434 1535.751 24.401 A 44.478 44.478 0 0 0 1535.5 24.4 L 1518.5 24.4 L 1518.5 22.8 A 387.248 387.248 0 0 0 1520.994 22.711 Q 1522.103 22.668 1523.33 22.615 A 733.971 733.971 0 0 0 1525.9 22.5 Q 1529.595 22.328 1534.177 22.23 A 474.372 474.372 0 0 1 1535.7 22.2 Q 1542.1 22.1 1546 23.9 A 12.804 12.804 0 0 1 1549.251 26.011 A 10.761 10.761 0 0 1 1551.65 29.15 Q 1553.236 32.277 1553.385 36.676 A 27.356 27.356 0 0 1 1553.4 37.6 L 1553.4 76.3 L 1551.8 76.3 L 1551 69.9 A 0.269 0.269 0 0 0 1550.94 69.916 Q 1550.606 70.031 1548.55 70.95 Q 1546.317 71.948 1542.865 73.261 A 202.791 202.791 0 0 1 1542.5 73.4 A 70.66 70.66 0 0 1 1536.19 75.444 A 79.651 79.651 0 0 1 1534.65 75.85 A 35.335 35.335 0 0 1 1530.124 76.699 A 28.386 28.386 0 0 1 1526.8 76.9 A 15.757 15.757 0 0 1 1522.176 76.249 A 12.868 12.868 0 0 1 1517.3 73.5 A 10.982 10.982 0 0 1 1513.959 67.787 Q 1513.514 65.983 1513.5 63.839 A 21.4 21.4 0 0 1 1513.5 63.7 Z M 503.6 100 L 501.2 100 L 501.2 23.2 L 502.8 23.2 L 503.6 28.9 A 21.523 21.523 0 0 1 504.802 28.183 Q 506.318 27.337 508.6 26.3 A 47.971 47.971 0 0 1 513.421 24.427 A 56.792 56.792 0 0 1 515.8 23.7 Q 519.7 22.6 523.1 22.6 A 19.732 19.732 0 0 1 527.335 23.032 A 14.259 14.259 0 0 1 532.2 25.05 Q 535.9 27.5 538.15 31.5 Q 540.4 35.5 541.35 40.2 Q 542.3 44.9 542.3 49.5 Q 542.3 58.8 540.05 64.9 A 23.427 23.427 0 0 1 537.987 69.185 Q 536.342 71.828 534.108 73.543 A 14.415 14.415 0 0 1 533.55 73.95 A 16.212 16.212 0 0 1 527.218 76.535 A 22.266 22.266 0 0 1 523.1 76.9 A 28.924 28.924 0 0 1 515.361 75.812 A 34.223 34.223 0 0 1 513.1 75.1 Q 508 73.3 503.6 70.6 L 503.6 100 Z M 1497 26.2 L 1497 0 L 1499.4 0 L 1499.4 76.3 L 1497.8 76.3 L 1497 70.6 Q 1495.7 71.8 1492.35 73.25 A 50.659 50.659 0 0 1 1487.889 74.926 A 62.48 62.48 0 0 1 1484.95 75.8 Q 1480.9 76.9 1477.5 76.9 Q 1471.91 76.9 1468.044 74.873 A 14.163 14.163 0 0 1 1466.45 73.9 A 15.29 15.29 0 0 1 1461.949 68.825 A 21.481 21.481 0 0 1 1460.25 64.9 Q 1458.734 60.236 1458.397 53.82 A 72.774 72.774 0 0 1 1458.3 50 A 77.434 77.434 0 0 1 1458.505 44.188 Q 1458.956 38.209 1460.4 34.05 A 20.165 20.165 0 0 1 1462.352 29.909 A 13.991 13.991 0 0 1 1466.95 25.3 A 17.214 17.214 0 0 1 1471.704 23.362 Q 1474.728 22.6 1478.5 22.6 Q 1483.6 22.6 1488.5 23.75 Q 1492.711 24.738 1495.962 25.837 A 53.612 53.612 0 0 1 1497 26.2 Z M 583.1 51.2 L 558.7 51.2 A 81.242 81.242 0 0 0 558.846 56.238 Q 559.169 61.409 560.2 64.95 A 14.674 14.674 0 0 0 561.753 68.539 A 11.019 11.019 0 0 0 565.7 72.4 A 14.459 14.459 0 0 0 569.037 73.755 Q 572.323 74.67 576.996 74.699 A 49.52 49.52 0 0 0 577.3 74.7 L 595.7 74.7 L 595.7 76.3 Q 590.6 76.7 586.45 76.8 A 328.467 328.467 0 0 1 582.183 76.873 Q 579.781 76.9 577.1 76.9 Q 571.85 76.9 568.086 75.78 A 16.702 16.702 0 0 1 564.55 74.3 A 12.972 12.972 0 0 1 559.528 69.041 A 18.576 18.576 0 0 1 558.15 65.7 A 34.699 34.699 0 0 1 557.097 61.079 Q 556.3 56.194 556.3 49.5 A 85.383 85.383 0 0 1 556.5 43.444 Q 556.906 37.76 558.133 33.9 A 23.433 23.433 0 0 1 558.35 33.25 A 17.148 17.148 0 0 1 560.354 29.208 A 12.674 12.674 0 0 1 565.1 25 A 19.395 19.395 0 0 1 569.384 23.457 Q 571.494 22.948 573.995 22.741 A 43.803 43.803 0 0 1 577.6 22.6 A 43.592 43.592 0 0 1 582.003 22.809 Q 584.16 23.028 585.989 23.478 A 20.589 20.589 0 0 1 588.2 24.15 Q 592.4 25.7 594.55 29.4 A 13.839 13.839 0 0 1 595.902 32.718 Q 596.7 35.639 596.7 39.6 Q 596.7 42.889 595.638 45.213 A 9.03 9.03 0 0 1 595.05 46.3 A 9.217 9.217 0 0 1 590.539 49.977 A 11.353 11.353 0 0 1 590.35 50.05 A 16.894 16.894 0 0 1 587.126 50.894 Q 585.266 51.2 583.1 51.2 Z M 971.1 51.2 L 946.7 51.2 A 81.242 81.242 0 0 0 946.846 56.238 Q 947.169 61.409 948.2 64.95 A 14.674 14.674 0 0 0 949.753 68.539 A 11.019 11.019 0 0 0 953.7 72.4 A 14.459 14.459 0 0 0 957.037 73.755 Q 960.323 74.67 964.996 74.699 A 49.52 49.52 0 0 0 965.3 74.7 L 983.7 74.7 L 983.7 76.3 Q 978.6 76.7 974.45 76.8 A 328.467 328.467 0 0 1 970.183 76.873 Q 967.781 76.9 965.1 76.9 Q 959.85 76.9 956.086 75.78 A 16.702 16.702 0 0 1 952.55 74.3 A 12.972 12.972 0 0 1 947.528 69.041 A 18.576 18.576 0 0 1 946.15 65.7 A 34.699 34.699 0 0 1 945.097 61.079 Q 944.3 56.194 944.3 49.5 A 85.383 85.383 0 0 1 944.5 43.444 Q 944.906 37.76 946.133 33.9 A 23.433 23.433 0 0 1 946.35 33.25 A 17.148 17.148 0 0 1 948.354 29.208 A 12.674 12.674 0 0 1 953.1 25 A 19.395 19.395 0 0 1 957.384 23.457 Q 959.494 22.948 961.995 22.741 A 43.803 43.803 0 0 1 965.6 22.6 A 43.592 43.592 0 0 1 970.003 22.809 Q 972.16 23.028 973.989 23.478 A 20.589 20.589 0 0 1 976.2 24.15 Q 980.4 25.7 982.55 29.4 A 13.839 13.839 0 0 1 983.902 32.718 Q 984.7 35.639 984.7 39.6 Q 984.7 42.889 983.638 45.213 A 9.03 9.03 0 0 1 983.05 46.3 A 9.217 9.217 0 0 1 978.539 49.977 A 11.353 11.353 0 0 1 978.35 50.05 A 16.894 16.894 0 0 1 975.126 50.894 Q 973.266 51.2 971.1 51.2 Z M 1065.9 51.2 L 1041.5 51.2 A 81.242 81.242 0 0 0 1041.646 56.238 Q 1041.969 61.409 1043 64.95 A 14.674 14.674 0 0 0 1044.553 68.539 A 11.019 11.019 0 0 0 1048.5 72.4 A 14.459 14.459 0 0 0 1051.837 73.755 Q 1055.123 74.67 1059.796 74.699 A 49.52 49.52 0 0 0 1060.1 74.7 L 1078.5 74.7 L 1078.5 76.3 Q 1073.4 76.7 1069.25 76.8 A 328.467 328.467 0 0 1 1064.983 76.873 Q 1062.581 76.9 1059.9 76.9 Q 1054.65 76.9 1050.886 75.78 A 16.702 16.702 0 0 1 1047.35 74.3 A 12.972 12.972 0 0 1 1042.328 69.041 A 18.576 18.576 0 0 1 1040.95 65.7 A 34.699 34.699 0 0 1 1039.897 61.079 Q 1039.1 56.194 1039.1 49.5 A 85.383 85.383 0 0 1 1039.3 43.444 Q 1039.706 37.76 1040.933 33.9 A 23.433 23.433 0 0 1 1041.15 33.25 A 17.148 17.148 0 0 1 1043.154 29.208 A 12.674 12.674 0 0 1 1047.9 25 A 19.395 19.395 0 0 1 1052.184 23.457 Q 1054.294 22.948 1056.795 22.741 A 43.803 43.803 0 0 1 1060.4 22.6 A 43.592 43.592 0 0 1 1064.803 22.809 Q 1066.96 23.028 1068.789 23.478 A 20.589 20.589 0 0 1 1071 24.15 Q 1075.2 25.7 1077.35 29.4 A 13.839 13.839 0 0 1 1078.702 32.718 Q 1079.5 35.639 1079.5 39.6 Q 1079.5 42.889 1078.438 45.213 A 9.03 9.03 0 0 1 1077.85 46.3 A 9.217 9.217 0 0 1 1073.339 49.977 A 11.353 11.353 0 0 1 1073.15 50.05 A 16.894 16.894 0 0 1 1069.926 50.894 Q 1068.066 51.2 1065.9 51.2 Z M 1348.3 23.3 L 1348.3 24.9 L 1331.5 24.9 Q 1326.048 24.9 1322.07 26.816 A 16.439 16.439 0 0 0 1322 26.85 A 11.072 11.072 0 0 0 1318.148 30.03 Q 1317.071 31.397 1316.213 33.204 A 22.075 22.075 0 0 0 1315.75 34.25 Q 1313.5 39.7 1313.5 50.1 A 65.789 65.789 0 0 0 1313.723 55.71 Q 1314.196 61.225 1315.677 64.831 A 17.64 17.64 0 0 0 1315.9 65.35 A 19.373 19.373 0 0 0 1317.815 68.73 Q 1319.74 71.411 1322.35 72.7 A 19.385 19.385 0 0 0 1328.865 74.559 A 24.052 24.052 0 0 0 1331.5 74.7 L 1349.1 74.7 L 1349.1 76.3 Q 1346.9 76.4 1344.15 76.55 Q 1341.4 76.7 1338.2 76.8 A 207.755 207.755 0 0 1 1333.231 76.894 A 237.193 237.193 0 0 1 1331.5 76.9 A 28.348 28.348 0 0 1 1326.115 76.405 A 24.39 24.39 0 0 1 1323.5 75.75 Q 1319.8 74.6 1317 71.7 Q 1314.2 68.8 1312.65 63.45 Q 1311.526 59.572 1311.217 54.092 A 78.118 78.118 0 0 1 1311.1 49.7 A 75.844 75.844 0 0 1 1311.277 44.348 Q 1311.616 39.578 1312.6 36.1 Q 1313.74 32.073 1315.572 29.432 A 13.715 13.715 0 0 1 1316.8 27.9 Q 1319.5 25 1323.25 23.85 A 26.114 26.114 0 0 1 1328.493 22.836 A 32.385 32.385 0 0 1 1331.5 22.7 Q 1334.8 22.7 1339.65 22.85 Q 1344.178 22.99 1347.791 23.261 A 128.566 128.566 0 0 1 1348.3 23.3 Z M 188 76.3 L 182.5 76.3 A 18.768 18.768 0 0 1 179.094 76.006 Q 176.913 75.604 175.15 74.65 A 10.132 10.132 0 0 1 171.071 70.549 A 12.965 12.965 0 0 1 170.55 69.5 Q 169.345 66.779 169.077 62.85 A 34.532 34.532 0 0 1 169 60.5 L 169.2 25.4 L 160.6 25.4 L 160.6 23.8 L 169 23.2 L 169.8 8.3 L 171.4 8.3 L 171.4 23.2 L 188.9 23.2 L 188.9 25.4 L 171.4 25.4 L 171.4 60.5 Q 171.4 63.405 171.817 65.539 A 13.104 13.104 0 0 0 172.4 67.65 A 12.925 12.925 0 0 0 173.225 69.438 Q 173.994 70.801 175 71.65 A 10.082 10.082 0 0 0 176.742 72.844 A 8.152 8.152 0 0 0 178.35 73.5 Q 180.1 74 181.6 74.1 L 188 74.7 L 188 76.3 Z M 692 76.3 L 686.5 76.3 A 18.768 18.768 0 0 1 683.094 76.006 Q 680.913 75.604 679.15 74.65 A 10.132 10.132 0 0 1 675.071 70.549 A 12.965 12.965 0 0 1 674.55 69.5 Q 673.345 66.779 673.077 62.85 A 34.532 34.532 0 0 1 673 60.5 L 673.2 25.4 L 664.6 25.4 L 664.6 23.8 L 673 23.2 L 673.8 8.3 L 675.4 8.3 L 675.4 23.2 L 692.9 23.2 L 692.9 25.4 L 675.4 25.4 L 675.4 60.5 Q 675.4 63.405 675.817 65.539 A 13.104 13.104 0 0 0 676.4 67.65 A 12.925 12.925 0 0 0 677.225 69.438 Q 677.994 70.801 679 71.65 A 10.082 10.082 0 0 0 680.742 72.844 A 8.152 8.152 0 0 0 682.35 73.5 Q 684.1 74 685.6 74.1 L 692 74.7 L 692 76.3 Z M 932.4 76.3 L 926.9 76.3 A 18.768 18.768 0 0 1 923.494 76.006 Q 921.313 75.604 919.55 74.65 A 10.132 10.132 0 0 1 915.471 70.549 A 12.965 12.965 0 0 1 914.95 69.5 Q 913.745 66.779 913.477 62.85 A 34.532 34.532 0 0 1 913.4 60.5 L 913.6 25.4 L 905 25.4 L 905 23.8 L 913.4 23.2 L 914.2 8.3 L 915.8 8.3 L 915.8 23.2 L 933.3 23.2 L 933.3 25.4 L 915.8 25.4 L 915.8 60.5 Q 915.8 63.405 916.217 65.539 A 13.104 13.104 0 0 0 916.8 67.65 A 12.925 12.925 0 0 0 917.625 69.438 Q 918.394 70.801 919.4 71.65 A 10.082 10.082 0 0 0 921.142 72.844 A 8.152 8.152 0 0 0 922.75 73.5 Q 924.5 74 926 74.1 L 932.4 74.7 L 932.4 76.3 Z M 1592.2 76.3 L 1586.7 76.3 A 18.768 18.768 0 0 1 1583.294 76.006 Q 1581.113 75.604 1579.35 74.65 A 10.132 10.132 0 0 1 1575.271 70.549 A 12.965 12.965 0 0 1 1574.75 69.5 Q 1573.545 66.779 1573.277 62.85 A 34.532 34.532 0 0 1 1573.2 60.5 L 1573.4 25.4 L 1564.8 25.4 L 1564.8 23.8 L 1573.2 23.2 L 1574 8.3 L 1575.6 8.3 L 1575.6 23.2 L 1593.1 23.2 L 1593.1 25.4 L 1575.6 25.4 L 1575.6 60.5 Q 1575.6 63.405 1576.017 65.539 A 13.104 13.104 0 0 0 1576.6 67.65 A 12.925 12.925 0 0 0 1577.425 69.438 Q 1578.194 70.801 1579.2 71.65 A 10.082 10.082 0 0 0 1580.942 72.844 A 8.152 8.152 0 0 0 1582.55 73.5 Q 1584.3 74 1585.8 74.1 L 1592.2 74.7 L 1592.2 76.3 Z M 157 76.3 L 151 76.3 A 15.8 15.8 0 0 1 147.963 76.022 A 11.431 11.431 0 0 1 144.65 74.85 Q 142.217 73.519 140.838 70.334 A 14.867 14.867 0 0 1 140.6 69.75 A 17.087 17.087 0 0 1 139.832 67.026 Q 139.289 64.341 139.212 60.639 A 60.084 60.084 0 0 1 139.2 59.4 L 139.2 0 L 141.6 0 L 141.6 59.4 A 54.155 54.155 0 0 0 141.687 62.586 Q 141.857 65.463 142.361 67.401 A 11.846 11.846 0 0 0 142.7 68.5 Q 143.496 70.671 144.789 71.847 A 5.296 5.296 0 0 0 145.85 72.6 A 11.902 11.902 0 0 0 148.666 73.663 A 15.234 15.234 0 0 0 150.6 74 L 157 74.7 L 157 76.3 Z M 1221.2 76.3 L 1215.2 76.3 A 15.8 15.8 0 0 1 1212.163 76.022 A 11.431 11.431 0 0 1 1208.85 74.85 Q 1206.417 73.519 1205.038 70.334 A 14.867 14.867 0 0 1 1204.8 69.75 A 17.087 17.087 0 0 1 1204.032 67.026 Q 1203.489 64.341 1203.412 60.639 A 60.084 60.084 0 0 1 1203.4 59.4 L 1203.4 0 L 1205.8 0 L 1205.8 59.4 A 54.155 54.155 0 0 0 1205.887 62.586 Q 1206.057 65.463 1206.561 67.401 A 11.846 11.846 0 0 0 1206.9 68.5 Q 1207.696 70.671 1208.989 71.847 A 5.296 5.296 0 0 0 1210.05 72.6 A 11.902 11.902 0 0 0 1212.866 73.663 A 15.234 15.234 0 0 0 1214.8 74 L 1221.2 74.7 L 1221.2 76.3 Z M 708.4 76.3 L 706 76.3 L 706 23.2 L 707.6 23.2 L 708.4 33.3 A 40.132 40.132 0 0 1 715.786 26.785 A 36.7 36.7 0 0 1 717.65 25.6 Q 722.7 22.6 729.2 22.6 Q 730.8 22.6 732.15 22.75 Q 733.5 22.9 734.6 23.2 L 734.6 25.6 Q 733.5 25.4 732.15 25.2 A 18.183 18.183 0 0 0 730.552 25.038 A 23.09 23.09 0 0 0 729.2 25 A 27.373 27.373 0 0 0 725.388 25.253 A 19.933 19.933 0 0 0 721.6 26.15 Q 718.3 27.3 715.15 29.5 Q 712 31.7 708.4 34.9 L 708.4 76.3 Z M 1003.2 76.3 L 1000.8 76.3 L 1000.8 23.2 L 1002.4 23.2 L 1003.2 33.3 A 40.132 40.132 0 0 1 1010.586 26.785 A 36.7 36.7 0 0 1 1012.45 25.6 Q 1017.5 22.6 1024 22.6 Q 1025.6 22.6 1026.95 22.75 Q 1028.3 22.9 1029.4 23.2 L 1029.4 25.6 Q 1028.3 25.4 1026.95 25.2 A 18.183 18.183 0 0 0 1025.352 25.038 A 23.09 23.09 0 0 0 1024 25 A 27.373 27.373 0 0 0 1020.188 25.253 A 19.933 19.933 0 0 0 1016.4 26.15 Q 1013.1 27.3 1009.95 29.5 Q 1006.8 31.7 1003.2 34.9 L 1003.2 76.3 Z M 1422.4 76.3 L 1420 76.3 L 1420 23.2 L 1421.6 23.2 L 1422.4 33.3 A 40.132 40.132 0 0 1 1429.786 26.785 A 36.7 36.7 0 0 1 1431.65 25.6 Q 1436.7 22.6 1443.2 22.6 Q 1444.8 22.6 1446.15 22.75 Q 1447.5 22.9 1448.6 23.2 L 1448.6 25.6 Q 1447.5 25.4 1446.15 25.2 A 18.183 18.183 0 0 0 1444.552 25.038 A 23.09 23.09 0 0 0 1443.2 25 A 27.373 27.373 0 0 0 1439.388 25.253 A 19.933 19.933 0 0 0 1435.6 26.15 Q 1432.3 27.3 1429.15 29.5 Q 1426 31.7 1422.4 34.9 L 1422.4 76.3 Z M 1377.08 76.64 A 42.499 42.499 0 0 0 1381.9 76.9 A 43.391 43.391 0 0 0 1386.317 76.684 A 32.704 32.704 0 0 0 1391.1 75.85 Q 1395.2 74.8 1398.05 71.95 Q 1399.92 70.08 1401.209 67.111 A 26.121 26.121 0 0 0 1402.4 63.7 A 33.93 33.93 0 0 0 1403.181 60.075 Q 1403.543 57.849 1403.723 55.234 A 80.934 80.934 0 0 0 1403.9 49.7 Q 1403.9 44.191 1403.284 40.015 A 34.478 34.478 0 0 0 1402.4 35.75 Q 1400.9 30.4 1398.05 27.55 Q 1395.2 24.7 1391.1 23.65 Q 1387 22.6 1381.9 22.6 A 42.882 42.882 0 0 0 1377.349 22.831 A 31.773 31.773 0 0 0 1372.75 23.65 Q 1368.7 24.7 1365.85 27.55 A 12.712 12.712 0 0 0 1364.612 28.995 Q 1362.666 31.632 1361.55 35.75 A 35.125 35.125 0 0 0 1360.724 39.812 Q 1360.1 44.056 1360.1 49.7 Q 1360.1 55.209 1360.695 59.405 A 36.234 36.234 0 0 0 1361.55 63.7 A 28.195 28.195 0 0 0 1362.088 65.477 Q 1362.723 67.34 1363.555 68.844 A 13.807 13.807 0 0 0 1365.85 71.95 Q 1368.7 74.8 1372.75 75.85 A 31.503 31.503 0 0 0 1377.08 76.64 Z M 1497 69 L 1497 27.8 Q 1492.1 26.5 1488 25.65 A 37.988 37.988 0 0 0 1484.164 25.069 Q 1482.194 24.867 1479.993 24.817 A 65.196 65.196 0 0 0 1478.5 24.8 A 27.089 27.089 0 0 0 1474.275 25.11 Q 1472.009 25.468 1470.148 26.241 A 13.947 13.947 0 0 0 1468.25 27.2 A 12.058 12.058 0 0 0 1464.234 31.276 Q 1463.268 32.847 1462.589 34.833 A 21.952 21.952 0 0 0 1462.5 35.1 A 30.211 30.211 0 0 0 1461.475 39.342 Q 1460.706 43.796 1460.7 49.904 A 98.101 98.101 0 0 0 1460.7 50 A 68.614 68.614 0 0 0 1460.92 55.663 Q 1461.14 58.314 1461.581 60.589 A 31.549 31.549 0 0 0 1462.4 63.9 A 19.706 19.706 0 0 0 1463.956 67.624 Q 1465.242 69.95 1467.079 71.491 A 11.942 11.942 0 0 0 1467.8 72.05 A 13.347 13.347 0 0 0 1472.227 74.078 Q 1474.076 74.564 1476.254 74.67 A 25.571 25.571 0 0 0 1477.5 74.7 A 32.509 32.509 0 0 0 1483.769 74.119 A 26.475 26.475 0 0 0 1488.2 72.85 A 109.227 109.227 0 0 0 1493.753 70.54 A 88.467 88.467 0 0 0 1497 69 Z M 1381.9 74.7 A 42.722 42.722 0 0 0 1386.198 74.494 A 31.357 31.357 0 0 0 1390.15 73.85 Q 1393.8 73 1396.3 70.45 A 12.132 12.132 0 0 0 1398.141 67.974 Q 1398.858 66.724 1399.432 65.17 A 26.528 26.528 0 0 0 1400.15 62.9 A 32.752 32.752 0 0 0 1400.919 59.084 Q 1401.209 57.083 1401.355 54.737 A 81.709 81.709 0 0 0 1401.5 49.7 Q 1401.5 41.584 1400.209 36.671 A 24.559 24.559 0 0 0 1400.15 36.45 Q 1399.19 32.93 1397.648 30.648 A 11.155 11.155 0 0 0 1396.3 29 A 12.462 12.462 0 0 0 1390.391 25.708 A 14.891 14.891 0 0 0 1390.15 25.65 Q 1386.529 24.807 1381.972 24.8 A 49.553 49.553 0 0 0 1381.9 24.8 A 42.688 42.688 0 0 0 1377.807 24.987 Q 1375.613 25.198 1373.7 25.65 Q 1370.1 26.5 1367.6 29 Q 1365.1 31.5 1363.8 36.45 Q 1362.503 41.387 1362.5 49.657 A 108.26 108.26 0 0 0 1362.5 49.7 A 85.671 85.671 0 0 0 1362.627 54.512 Q 1362.764 56.949 1363.051 59.019 A 34.002 34.002 0 0 0 1363.8 62.9 A 24.444 24.444 0 0 0 1364.822 66.015 Q 1365.456 67.563 1366.256 68.773 A 11.238 11.238 0 0 0 1367.6 70.45 Q 1370.1 73 1373.7 73.85 Q 1377.188 74.673 1381.613 74.699 A 49.288 49.288 0 0 0 1381.9 74.7 Z M 503.6 30.5 L 503.6 69 Q 508.3 71.5 513.25 73.1 A 32.148 32.148 0 0 0 522.104 74.683 A 30.073 30.073 0 0 0 523.1 74.7 Q 528.1 74.7 531.85 72.25 Q 535.203 70.06 537.276 65.431 A 25.244 25.244 0 0 0 537.75 64.3 Q 539.9 58.8 539.9 49.5 A 50.821 50.821 0 0 0 539.61 43.903 Q 539.058 38.927 537.45 35.35 A 24.328 24.328 0 0 0 535.423 31.67 Q 534.066 29.668 532.425 28.277 A 13.69 13.69 0 0 0 531.2 27.35 Q 527.4 24.8 523.1 24.8 A 32.509 32.509 0 0 0 516.831 25.381 A 26.475 26.475 0 0 0 512.4 26.65 A 109.227 109.227 0 0 0 506.847 28.96 A 88.467 88.467 0 0 0 503.6 30.5 Z M 1610.7 56.7 L 1609.1 56.7 L 1608.7 3.2 L 1611.1 3.2 L 1610.7 56.7 Z M 358.8 76.3 L 356.4 76.3 L 356.4 23.2 L 358.8 23.2 L 358.8 76.3 Z M 835 76.3 L 832.6 76.3 L 832.6 23.2 L 835 23.2 L 835 76.3 Z M 1293 68.3 L 1293 48.1 L 1270.8 48.8 Q 1263.712 49 1260.81 52.339 A 7.475 7.475 0 0 0 1260.8 52.35 A 11.823 11.823 0 0 0 1257.961 59.216 A 15.499 15.499 0 0 0 1257.9 60.6 L 1257.9 63.2 A 16.863 16.863 0 0 0 1258.101 65.887 Q 1258.329 67.295 1258.814 68.446 A 8.357 8.357 0 0 0 1259.6 69.9 A 9.97 9.97 0 0 0 1261.629 72.12 A 8.578 8.578 0 0 0 1263.85 73.4 A 16.672 16.672 0 0 0 1266.748 74.255 A 13.711 13.711 0 0 0 1268.8 74.5 A 15.697 15.697 0 0 0 1269.453 74.513 Q 1271.315 74.513 1273.593 74.097 A 33.738 33.738 0 0 0 1274.35 73.95 Q 1277.5 73.3 1280.75 72.4 Q 1284 71.5 1286.8 70.55 A 217.394 217.394 0 0 0 1288.131 70.094 Q 1289.759 69.53 1290.929 69.09 A 64.802 64.802 0 0 0 1291.3 68.95 L 1293 68.3 Z M 1551 68.3 L 1551 48.1 L 1528.8 48.8 Q 1521.712 49 1518.81 52.339 A 7.475 7.475 0 0 0 1518.8 52.35 A 11.823 11.823 0 0 0 1515.961 59.216 A 15.499 15.499 0 0 0 1515.9 60.6 L 1515.9 63.2 A 16.863 16.863 0 0 0 1516.101 65.887 Q 1516.329 67.295 1516.814 68.446 A 8.357 8.357 0 0 0 1517.6 69.9 A 9.97 9.97 0 0 0 1519.629 72.12 A 8.578 8.578 0 0 0 1521.85 73.4 A 16.672 16.672 0 0 0 1524.748 74.255 A 13.711 13.711 0 0 0 1526.8 74.5 A 15.697 15.697 0 0 0 1527.453 74.513 Q 1529.315 74.513 1531.593 74.097 A 33.738 33.738 0 0 0 1532.35 73.95 Q 1535.5 73.3 1538.75 72.4 Q 1542 71.5 1544.8 70.55 A 217.394 217.394 0 0 0 1546.131 70.094 Q 1547.759 69.53 1548.929 69.09 A 64.802 64.802 0 0 0 1549.3 68.95 L 1551 68.3 Z M 558.7 49 L 583.1 49 A 25.994 25.994 0 0 0 586.073 48.842 Q 589.573 48.438 591.55 47 A 5.841 5.841 0 0 0 593.478 44.489 Q 594.3 42.553 594.3 39.6 Q 594.3 33.8 592.65 30.6 Q 591 27.4 587.35 26.1 A 18.829 18.829 0 0 0 584.551 25.36 Q 581.603 24.8 577.6 24.8 A 43.127 43.127 0 0 0 573.297 25 Q 568.919 25.441 566.1 26.85 A 10.528 10.528 0 0 0 561.546 31.315 A 15.368 15.368 0 0 0 560.35 34.15 Q 558.86 38.892 558.715 47.184 A 104.529 104.529 0 0 0 558.7 49 Z M 946.7 49 L 971.1 49 A 25.994 25.994 0 0 0 974.073 48.842 Q 977.573 48.438 979.55 47 A 5.841 5.841 0 0 0 981.478 44.489 Q 982.3 42.553 982.3 39.6 Q 982.3 33.8 980.65 30.6 Q 979 27.4 975.35 26.1 A 18.829 18.829 0 0 0 972.551 25.36 Q 969.603 24.8 965.6 24.8 A 43.127 43.127 0 0 0 961.297 25 Q 956.919 25.441 954.1 26.85 A 10.528 10.528 0 0 0 949.546 31.315 A 15.368 15.368 0 0 0 948.35 34.15 Q 946.86 38.892 946.715 47.184 A 104.529 104.529 0 0 0 946.7 49 Z M 1041.5 49 L 1065.9 49 A 25.994 25.994 0 0 0 1068.873 48.842 Q 1072.373 48.438 1074.35 47 A 5.841 5.841 0 0 0 1076.278 44.489 Q 1077.1 42.553 1077.1 39.6 Q 1077.1 33.8 1075.45 30.6 Q 1073.8 27.4 1070.15 26.1 A 18.829 18.829 0 0 0 1067.351 25.36 Q 1064.403 24.8 1060.4 24.8 A 43.127 43.127 0 0 0 1056.097 25 Q 1051.719 25.441 1048.9 26.85 A 10.528 10.528 0 0 0 1044.346 31.315 A 15.368 15.368 0 0 0 1043.15 34.15 Q 1041.66 38.892 1041.515 47.184 A 104.529 104.529 0 0 0 1041.5 49 Z M 169.6 95.4 L 166.9 95.4 L 166.9 94.4 L 170.1 94.1 Q 172.259 93.86 173.875 93.3 A 11.14 11.14 0 0 0 174.65 93 Q 176.298 92.288 177.231 90.227 A 9.161 9.161 0 0 0 177.45 89.7 A 10.116 10.116 0 0 0 177.894 88.101 Q 178.365 85.751 178.302 81.928 A 58.009 58.009 0 0 0 178.3 81.8 L 180 81.8 Q 180 86.745 179.218 89.733 A 15.079 15.079 0 0 1 179.2 89.8 A 8.476 8.476 0 0 1 178.407 91.792 A 6.027 6.027 0 0 1 176.15 94.1 A 8.089 8.089 0 0 1 174.28 94.863 Q 172.485 95.366 169.947 95.398 A 27.626 27.626 0 0 1 169.6 95.4 Z M 1610.5 76.3 L 1609.4 76.3 A 1.728 1.728 0 0 1 1608.925 76.241 Q 1608.393 76.088 1608.251 75.544 A 1.768 1.768 0 0 1 1608.2 75.1 L 1608.2 68.9 A 1.728 1.728 0 0 1 1608.259 68.425 Q 1608.412 67.893 1608.956 67.751 A 1.768 1.768 0 0 1 1609.4 67.7 L 1610.5 67.7 A 1.728 1.728 0 0 1 1610.975 67.759 Q 1611.507 67.912 1611.649 68.456 A 1.768 1.768 0 0 1 1611.7 68.9 L 1611.7 75.1 A 1.638 1.638 0 0 1 1611.666 75.446 Q 1611.591 75.794 1611.35 76 A 1.241 1.241 0 0 1 1610.593 76.297 A 1.599 1.599 0 0 1 1610.5 76.3 Z M 358.2 12.3 L 357.1 12.3 A 1.728 1.728 0 0 1 356.625 12.241 Q 356.093 12.088 355.951 11.544 A 1.768 1.768 0 0 1 355.9 11.1 L 355.9 4.9 A 1.728 1.728 0 0 1 355.959 4.425 Q 356.112 3.893 356.656 3.751 A 1.768 1.768 0 0 1 357.1 3.7 L 358.2 3.7 A 1.612 1.612 0 0 1 358.51 3.728 Q 358.87 3.798 359.05 4.05 A 1.33 1.33 0 0 1 359.28 4.627 A 1.771 1.771 0 0 1 359.3 4.9 L 359.3 11.1 Q 359.3 12.3 358.2 12.3 Z M 834.4 12.3 L 833.3 12.3 A 1.728 1.728 0 0 1 832.825 12.241 Q 832.293 12.088 832.151 11.544 A 1.768 1.768 0 0 1 832.1 11.1 L 832.1 4.9 A 1.728 1.728 0 0 1 832.159 4.425 Q 832.312 3.893 832.856 3.751 A 1.768 1.768 0 0 1 833.3 3.7 L 834.4 3.7 A 1.612 1.612 0 0 1 834.71 3.728 Q 835.07 3.798 835.25 4.05 A 1.33 1.33 0 0 1 835.48 4.627 A 1.771 1.771 0 0 1 835.5 4.9 L 835.5 11.1 Q 835.5 12.3 834.4 12.3 Z" vector-effect="non-scaling-stroke"/></g></svg>