<?xml version="1.0" encoding="utf-8"?>
<!-- Generator: Adobe Illustrator 25.1.0, SVG Export Plug-In . SVG Version: 6.00 Build 0)  -->
<svg version="1.1" id="Layer_1" xmlns="http://www.w3.org/2000/svg" xmlns:xlink="http://www.w3.org/1999/xlink" x="0px" y="0px"
	 viewBox="0 0 1920 1080" style="enable-background:new 0 0 1920 1080;" xml:space="preserve">
<style type="text/css">
	.st0{fill:none;stroke:#FFCE35;stroke-width:100;stroke-miterlimit:10;}
</style>
<path class="st0" d="M26,706c71.6-184.4,148.5-338.6,206-329c85.9,14.4,69.4,385.3,151,396c90.9,11.9,188.4-438.1,297-428
	c91,8.4,103.1,331.4,195,338c92,6.6,157.1-311.3,242-303c85.7,8.4,95.2,339.5,169,344c78.9,4.9,134.3-369.1,217-366
	c83.8,3.1,113.6,390.4,178,389c65.1-1.4,98.1-398.4,142-396c16.6,0.9,27.3,58.3,34,112"/>
</svg>
